<?xml version="1.0" standalone="no"?>
<!DOCTYPE svg PUBLIC "-//W3C//DTD SVG 20010904//EN"
 "http://www.w3.org/TR/2001/REC-SVG-20010904/DTD/svg10.dtd">
<svg version="1.0" xmlns="http://www.w3.org/2000/svg"
 width="300.000000pt" height="300.000000pt" viewBox="0 0 300.000000 300.000000"
 preserveAspectRatio="xMidYMid meet">
<metadata>
Created by potrace 1.10, written by Peter Selinger 2001-2011
</metadata>
<g transform="translate(0.000000,300.000000) scale(0.100000,-0.100000)"
fill="#000000" stroke="none">
<path d="M1850 2911 c-74 -6 -127 -16 -180 -35 -177 -65 -359 -141 -407 -172
-145 -92 -313 -300 -355 -439 -31 -99 -33 -372 -4 -455 27 -79 112 -252 136
-277 11 -12 20 -26 20 -30 0 -8 25 -41 125 -170 17 -21 136 -159 265 -308 251
-289 332 -392 364 -468 18 -42 18 -49 5 -62 -28 -28 -148 -47 -329 -51 -96 -3
-194 -7 -218 -10 -52 -7 -229 12 -282 31 -21 8 -67 13 -102 12 -62 -1 -147 22
-223 61 -27 14 -28 15 -10 22 11 4 74 10 140 14 145 7 173 14 198 48 19 25 19
28 3 52 -9 14 -33 33 -53 41 -65 27 -274 65 -395 72 -128 7 -185 -5 -259 -54
-52 -34 -72 -68 -80 -133 -4 -30 -11 -67 -14 -82 -11 -41 1 -71 42 -118 39
-43 110 -85 158 -94 16 -3 61 -21 101 -40 75 -35 119 -46 454 -105 91 -17 194
-37 229 -46 53 -14 74 -15 121 -6 50 10 62 9 101 -8 121 -54 442 -61 537 -12
73 37 107 83 141 188 34 106 38 169 17 251 -18 66 -67 171 -100 215 -15 19
-26 37 -26 42 0 15 -195 269 -320 417 -384 454 -428 516 -467 651 -46 163 -52
300 -16 397 32 88 146 217 241 272 57 34 228 75 344 84 85 7 88 6 135 -24 61
-39 143 -74 212 -91 54 -14 55 -14 76 13 20 25 24 26 48 15 20 -9 27 -19 27
-41 0 -45 16 -66 73 -92 50 -24 71 -49 92 -111 13 -39 5 -190 -14 -255 -23
-80 -99 -251 -154 -345 -36 -63 -57 -92 -149 -212 -52 -67 -34 -176 39 -250
34 -33 91 -63 122 -63 117 0 265 140 371 350 38 75 87 222 106 318 18 94 18
239 -1 417 -29 273 -58 374 -130 454 -29 32 -35 45 -27 53 19 19 14 43 -15 70
-40 37 -60 45 -175 73 -84 21 -134 27 -268 30 -91 2 -212 0 -270 -4z m430 -34
c19 -4 46 -9 60 -12 14 -4 38 -9 55 -12 55 -9 139 -46 156 -67 16 -20 16 -21
-2 -28 -11 -4 -41 -6 -67 -3 -79 7 -77 -9 3 -34 57 -17 82 -31 106 -58 35 -40
65 -104 75 -160 4 -21 8 -47 11 -58 19 -97 35 -259 38 -405 4 -146 2 -188 -14
-250 -26 -108 -54 -194 -66 -202 -5 -4 -7 -8 -3 -8 10 0 -78 -169 -112 -213
-124 -165 -244 -217 -343 -148 -91 63 -113 210 -36 251 11 6 17 15 14 20 -3 5
1 12 9 17 27 15 104 140 164 264 84 176 88 186 107 263 49 202 4 349 -120 391
-27 9 -30 15 -31 53 -1 23 -3 44 -5 46 -8 8 -168 86 -177 86 -4 0 -23 14 -40
31 -18 17 -32 28 -32 24 0 -4 -7 -2 -15 5 -16 13 -65 6 -65 -9 0 -11 50 -41
100 -61 19 -8 52 -24 73 -37 43 -27 51 -56 12 -49 -35 6 -66 16 -90 26 -49 22
-101 43 -107 44 -3 1 -18 11 -31 22 -14 12 -35 25 -48 29 -34 11 -125 8 -200
-6 -35 -6 -75 -13 -89 -15 -14 -2 -44 -10 -67 -18 -24 -8 -43 -13 -43 -10 0 3
-12 -3 -27 -13 -16 -10 -40 -25 -55 -33 -16 -7 -52 -36 -82 -64 -122 -115
-176 -222 -181 -362 -2 -65 2 -100 19 -184 25 -128 74 -233 148 -323 38 -45
68 -86 68 -90 0 -5 48 -64 108 -131 59 -68 143 -167 187 -221 44 -53 97 -116
118 -140 20 -23 37 -45 37 -49 0 -3 28 -42 63 -87 34 -44 67 -88 72 -97 6 -9
24 -37 42 -62 17 -25 32 -49 34 -55 1 -5 12 -32 24 -60 56 -126 58 -235 6
-370 -22 -57 -59 -98 -116 -128 -36 -19 -57 -21 -195 -22 -194 0 -262 8 -322
39 -41 21 -52 23 -84 14 -40 -11 -137 -5 -194 11 -19 6 -51 13 -70 16 -19 3
-66 12 -105 20 -38 8 -90 17 -115 20 -25 3 -90 15 -145 26 -55 12 -108 22
-119 25 -10 2 -33 12 -50 22 -18 11 -61 29 -97 41 -105 36 -145 58 -178 98
-40 48 -48 78 -27 102 10 11 16 36 16 71 0 50 3 56 41 92 23 21 44 37 47 34 2
-3 19 2 36 12 24 13 55 17 146 16 63 0 131 -4 150 -7 19 -4 49 -10 65 -12 17
-3 41 -7 55 -10 52 -11 76 -16 98 -21 37 -7 95 -38 100 -51 4 -14 -38 -34 -78
-38 -14 -1 -72 -5 -130 -9 -128 -9 -212 -24 -204 -37 12 -21 84 -58 179 -94
84 -31 107 -36 147 -31 32 5 63 2 92 -8 25 -8 66 -18 93 -21 26 -3 64 -8 83
-11 53 -8 141 -6 154 4 6 5 27 7 46 5 181 -17 439 15 480 59 35 38 15 98 -70
213 -22 30 -40 57 -40 60 0 3 -111 133 -247 289 -137 156 -268 310 -293 341
-25 32 -58 72 -73 91 -16 18 -27 34 -25 36 1 2 -13 25 -32 52 -19 26 -35 51
-35 55 -1 3 -17 40 -37 81 -33 67 -44 93 -54 125 -29 89 -31 314 -3 423 28
109 117 242 236 352 68 62 135 111 159 114 6 1 19 7 27 14 8 7 24 15 36 17 12
2 27 7 34 12 6 4 14 8 17 9 3 0 16 5 30 11 77 33 115 48 117 46 2 -1 23 6 48
17 25 11 45 17 45 14 0 -3 6 -2 13 3 44 29 129 38 337 37 118 -1 231 -4 250
-7z"/>
<path d="M1800 2760 c0 -5 5 -10 10 -10 6 0 10 5 10 10 0 6 -4 10 -10 10 -5 0
-10 -4 -10 -10z"/>
<path d="M1091 1703 c-1 -17 4 -35 9 -38 12 -7 12 22 0 50 -7 17 -9 15 -9 -12z"/>
</g>
</svg>
